<svg width="32" height="32" viewBox="0 0 32 32" fill="none" xmlns="http://www.w3.org/2000/svg">
<path d="M21.04 4.98266C20.3689 4.73461 19.6311 4.73461 18.96 4.98266L13.2173 7.10666C13.1536 7.13031 13.0987 7.17287 13.0598 7.22863C13.021 7.28439 13.0001 7.3507 13 7.41866V11.1427C12.3375 11.0378 11.6625 11.0378 11 11.1427V7.41733C11.0001 6.94061 11.1462 6.47536 11.4187 6.08419C11.6911 5.69301 12.0769 5.39468 12.524 5.22933L18.2667 3.10666C19.3852 2.69325 20.6148 2.69325 21.7333 3.10666L27.476 5.22933C27.9231 5.39468 28.3089 5.69301 28.5813 6.08419C28.8538 6.47536 28.9999 6.94061 29 7.41733V21.644C29.0002 22.1209 28.8542 22.5865 28.5817 22.9779C28.3092 23.3694 27.9233 23.6679 27.476 23.8333L22.1187 25.812C22.2587 25.4227 22.3333 25.0067 22.3333 24.576V23.6013L26.7827 21.9573C26.8466 21.9336 26.9017 21.8908 26.9406 21.8348C26.9794 21.7788 27.0002 21.7122 27 21.644V7.41733C26.9999 7.34937 26.979 7.28306 26.9402 7.2273C26.9013 7.17153 26.8464 7.12897 26.7827 7.10533L21.04 4.98266ZM15.6933 10.2227C15.4426 10.136 15.2366 9.95333 15.1206 9.71479C15.0045 9.47624 14.988 9.20138 15.0747 8.95066C15.1613 8.69994 15.344 8.49391 15.5825 8.37789C15.8211 8.26186 16.0959 8.24535 16.3467 8.33199L19.8907 9.55866C19.9611 9.58294 20.0376 9.58294 20.108 9.55866L23.6413 8.33199C23.8921 8.245 24.1671 8.26117 24.4059 8.37694C24.6447 8.49271 24.8277 8.69861 24.9147 8.94933C25.0017 9.20004 24.9855 9.47505 24.8697 9.71385C24.7539 9.95264 24.5481 10.1357 24.2973 10.2227L20.764 11.448C20.2695 11.6192 19.7318 11.6192 19.2373 11.448L15.6933 10.2227ZM7.69333 19.556C7.44262 19.4694 7.23658 19.2867 7.12056 19.0481C7.00454 18.8096 6.98803 18.5347 7.07467 18.284C7.1613 18.0333 7.34399 17.8272 7.58254 17.7112C7.82108 17.5952 8.09595 17.5787 8.34667 17.6653L12 18.9293L15.6427 17.6667C15.7678 17.6192 15.9012 17.5973 16.0349 17.6023C16.1687 17.6073 16.3001 17.639 16.4213 17.6958C16.5425 17.7525 16.6511 17.8329 16.7407 17.9324C16.8303 18.0318 16.8989 18.1483 16.9427 18.2747C16.9864 18.4012 17.0043 18.5352 16.9953 18.6687C16.9863 18.8023 16.9506 18.9327 16.8903 19.0521C16.83 19.1716 16.7463 19.2778 16.6443 19.3643C16.5422 19.4509 16.4237 19.5161 16.296 19.556L13 20.6987V24.2987C13 24.5639 12.8946 24.8182 12.7071 25.0058C12.5196 25.1933 12.2652 25.2987 12 25.2987C11.7348 25.2987 11.4804 25.1933 11.2929 25.0058C11.1054 24.8182 11 24.5639 11 24.2987V20.6987L7.69333 19.556ZM13.7333 12.7067C12.6148 12.2932 11.3852 12.2932 10.2667 12.7067L4.524 14.8293C4.07688 14.9947 3.69114 15.293 3.41867 15.6842C3.14621 16.0754 3.0001 16.5406 3 17.0173V24.5773C2.99982 25.0543 3.14581 25.5198 3.41829 25.9112C3.69078 26.3027 4.07667 26.6012 4.524 26.7667L10.2667 28.888C11.3852 29.3014 12.6148 29.3014 13.7333 28.888L19.476 26.7653C19.9233 26.5999 20.3092 26.3014 20.5817 25.9099C20.8542 25.5185 21.0002 25.0529 21 24.576V17.016C20.9999 16.5393 20.8538 16.074 20.5813 15.6829C20.3089 15.2917 19.9231 14.9933 19.476 14.828L13.7333 12.7067ZM10.96 14.5827C11.6311 14.3346 12.3689 14.3346 13.04 14.5827L18.7827 16.7053C18.8464 16.729 18.9013 16.7715 18.9402 16.8273C18.979 16.8831 18.9999 16.9494 19 17.0173V24.5773C19.0002 24.6455 18.9794 24.7121 18.9406 24.7681C18.9017 24.8242 18.8466 24.8669 18.7827 24.8907L13.04 27.012C12.3689 27.26 11.6311 27.26 10.96 27.012L5.21733 24.8893C5.15341 24.8656 5.0983 24.8228 5.05944 24.7668C5.02057 24.7108 4.99983 24.6442 5 24.576V17.016C5.0001 16.948 5.02097 16.8817 5.05982 16.826C5.09866 16.7702 5.15362 16.7276 5.21733 16.704L10.96 14.5827Z" fill="#757575"/>
</svg>
