<svg width="24" height="27" viewBox="0 0 24 27" fill="none" xmlns="http://www.w3.org/2000/svg">
<path d="M10.3115 0.357241L19.0436 5.57849C19.3997 5.46928 19.7701 5.41384 20.1426 5.41399C22.273 5.41399 24 7.20249 24 9.40874C24 10.3179 23.7067 11.1561 23.2129 11.8274C23.2773 11.7398 23.3382 11.6497 23.3952 11.5571L18.6819 20.0131L18.6905 20.0479C18.7921 20.4712 18.8433 20.905 18.8429 21.3403L18.8421 24.0032L21.4145 24.0035V26.6667H5.33331V24L8.55575 24.0032L8.5565 21.3403C8.5565 19.2087 9.76562 17.3695 11.5124 16.5182L11.7897 16.3933L15.5533 9.64205L8.98388 5.71387L6.11881 10.8592C6.23869 11.3012 6.21225 11.7854 6.0175 12.2269L5.93231 12.3981C5.803 12.6299 5.63562 12.8249 5.44306 12.9791L5.44131 15.7071L5.44362 15.7174L2.95969 16.4067L2.62687 15.1204L4.15544 14.6953L4.15531 13.3942C3.8625 13.3776 3.56894 13.2914 3.29762 13.1292C3.01056 12.9576 2.78219 12.721 2.61987 12.4477L1.49406 13.1214L1.89956 14.694L0.657562 15.0386L0 12.4808L0.00287437 12.4805L0.000749588 12.4763L2.36006 11.0644C2.39836 10.8314 2.47673 10.6069 2.59169 10.4007C2.89131 9.86324 3.39569 9.52455 3.94387 9.4293L6.8895 4.14737C6.36131 3.33049 6.29194 2.24093 6.79863 1.33205C7.50875 0.0583031 9.0815 -0.378197 10.3115 0.357241ZM13.6997 18.6771C12.344 18.6771 11.2333 19.7636 11.1352 21.1416L11.1281 21.3403V24.0035H16.2713V21.3403C16.2713 19.9363 15.2223 18.7861 13.8916 18.6844L13.6997 18.6771ZM17.3495 12.164L17.2071 12.0005L14.8892 16.1571L14.8401 16.1454C15.623 16.3289 16.3381 16.6974 16.9404 17.2041L17.1647 17.4041L19.4331 13.3361L19.4681 13.3427C18.6411 13.1916 17.905 12.7677 17.3495 12.164ZM20.1426 8.07718C19.4325 8.07718 18.8568 8.67337 18.8568 9.40874C18.8568 10.1441 19.4325 10.7404 20.1426 10.7404C20.8527 10.7404 21.4284 10.1442 21.4284 9.40874C21.4284 8.67337 20.8527 8.07718 20.1426 8.07718ZM9.18325 2.02818C8.82819 2.02818 8.54037 2.3263 8.54037 2.69399C8.54037 3.06168 8.82819 3.3598 9.18325 3.3598C9.53831 3.3598 9.82612 3.06168 9.82612 2.69399C9.82612 2.3263 9.53831 2.02818 9.18325 2.02818Z" fill="black"/>
</svg>
