<svg width="32" height="32" viewBox="0 0 32 32" fill="none" xmlns="http://www.w3.org/2000/svg">
<path d="M12.3333 16C12.3333 15.7348 12.4386 15.4804 12.6261 15.2929C12.8137 15.1054 13.068 15 13.3333 15H14.9999V13.3333C14.9999 13.0681 15.1053 12.8138 15.2928 12.6262C15.4803 12.4387 15.7347 12.3333 15.9999 12.3333C16.2651 12.3333 16.5195 12.4387 16.707 12.6262C16.8946 12.8138 16.9999 13.0681 16.9999 13.3333V15H18.6666C18.9318 15 19.1862 15.1054 19.3737 15.2929C19.5612 15.4804 19.6666 15.7348 19.6666 16C19.6666 16.2652 19.5612 16.5196 19.3737 16.7071C19.1862 16.8947 18.9318 17 18.6666 17H16.9999V18.6667C16.9999 18.9319 16.8946 19.1862 16.707 19.3738C16.5195 19.5613 16.2651 19.6667 15.9999 19.6667C15.7347 19.6667 15.4803 19.5613 15.2928 19.3738C15.1053 19.1862 14.9999 18.9319 14.9999 18.6667V17H13.3333C13.068 17 12.8137 16.8947 12.6261 16.7071C12.4386 16.5196 12.3333 16.2652 12.3333 16Z" fill="black"/>
<path fill-rule="evenodd" clip-rule="evenodd" d="M16.0001 1.66666C8.08408 1.66666 1.66675 8.08399 1.66675 16C1.66675 23.916 8.08408 30.3333 16.0001 30.3333C23.9161 30.3333 30.3334 23.916 30.3334 16C30.3334 8.08399 23.9161 1.66666 16.0001 1.66666ZM15.0001 3.70666C12.0841 3.94374 9.34728 5.2097 7.27854 7.27844C5.20979 9.34719 3.94383 12.084 3.70675 15H6.66675C6.93196 15 7.18632 15.1053 7.37386 15.2929C7.56139 15.4804 7.66675 15.7348 7.66675 16C7.66675 16.2652 7.56139 16.5196 7.37386 16.7071C7.18632 16.8946 6.93196 17 6.66675 17H3.70675C3.94383 19.916 5.20979 22.6528 7.27854 24.7215C9.34728 26.7903 12.0841 28.0562 15.0001 28.2933V25.3333C15.0001 25.0681 15.1054 24.8138 15.293 24.6262C15.4805 24.4387 15.7349 24.3333 16.0001 24.3333C16.2653 24.3333 16.5197 24.4387 16.7072 24.6262C16.8947 24.8138 17.0001 25.0681 17.0001 25.3333V28.2933C19.9161 28.0562 22.6529 26.7903 24.7216 24.7215C26.7904 22.6528 28.0563 19.916 28.2934 17H25.3334C25.0682 17 24.8138 16.8946 24.6263 16.7071C24.4388 16.5196 24.3334 16.2652 24.3334 16C24.3334 15.7348 24.4388 15.4804 24.6263 15.2929C24.8138 15.1053 25.0682 15 25.3334 15H28.2934C28.0563 12.084 26.7904 9.34719 24.7216 7.27844C22.6529 5.2097 19.9161 3.94374 17.0001 3.70666V6.66666C17.0001 6.93187 16.8947 7.18623 16.7072 7.37376C16.5197 7.5613 16.2653 7.66666 16.0001 7.66666C15.7349 7.66666 15.4805 7.5613 15.293 7.37376C15.1054 7.18623 15.0001 6.93187 15.0001 6.66666V3.70666Z" fill="black"/>
</svg>
