<svg width="28" height="24" viewBox="0 0 28 24" fill="none" xmlns="http://www.w3.org/2000/svg">
<path d="M19.6 24V20.6C19.6 19.5391 19.1786 18.5217 18.4284 17.7716C17.6783 17.0214 16.6609 16.6 15.6 16.6H12.4C11.3391 16.6 10.3217 17.0214 9.57157 17.7716C8.82143 18.5217 8.4 19.5391 8.4 20.6V24M27 17V14.6C27 13.5391 26.5786 12.5217 25.8284 11.7716C25.0783 11.0214 24.0609 10.6 23 10.6H20M1 17V14.6C1 13.5391 1.42143 12.5217 2.17157 11.7716C2.92172 11.0214 3.93913 10.6 5 10.6H8M17.21 10.21C17.21 10.6315 17.127 11.049 16.9657 11.4384C16.8043 11.8279 16.5679 12.1817 16.2698 12.4798C15.9717 12.7779 15.6179 13.0143 15.2284 13.1757C14.839 13.337 14.4215 13.42 14 13.42C13.5785 13.42 13.161 13.337 12.7716 13.1757C12.3821 13.0143 12.0283 12.7779 11.7302 12.4798C11.4321 12.1817 11.1957 11.8279 11.0343 11.4384C10.873 11.049 10.79 10.6315 10.79 10.21C10.79 9.35866 11.1282 8.54218 11.7302 7.94019C12.3322 7.3382 13.1487 7 14 7C14.8513 7 15.6678 7.3382 16.2698 7.94019C16.8718 8.54218 17.21 9.35866 17.21 10.21ZM24.81 4.21C24.81 4.63154 24.727 5.04896 24.5657 5.43841C24.4043 5.82787 24.1679 6.18174 23.8698 6.47981C23.5717 6.77789 23.2179 7.01434 22.8284 7.17565C22.439 7.33697 22.0215 7.42 21.6 7.42C21.1785 7.42 20.761 7.33697 20.3716 7.17565C19.9821 7.01434 19.6283 6.77789 19.3302 6.47981C19.0321 6.18174 18.7957 5.82787 18.6343 5.43841C18.473 5.04896 18.39 4.63154 18.39 4.21C18.39 3.35866 18.7282 2.54218 19.3302 1.94019C19.9322 1.3382 20.7487 1 21.6 1C22.4513 1 23.2678 1.3382 23.8698 1.94019C24.4718 2.54218 24.81 3.35866 24.81 4.21ZM9.81 4.21C9.81 4.63154 9.72697 5.04896 9.56565 5.43841C9.40434 5.82787 9.16789 6.18174 8.86981 6.47981C8.57174 6.77789 8.21787 7.01434 7.82841 7.17565C7.43896 7.33697 7.02154 7.42 6.6 7.42C6.17846 7.42 5.76104 7.33697 5.37159 7.17565C4.98213 7.01434 4.62826 6.77789 4.33019 6.47981C4.03211 6.18174 3.79566 5.82787 3.63435 5.43841C3.47303 5.04896 3.39 4.63154 3.39 4.21C3.39 3.35866 3.7282 2.54218 4.33019 1.94019C4.93218 1.3382 5.74866 1 6.6 1C7.45135 1 8.26782 1.3382 8.86981 1.94019C9.4718 2.54218 9.81 3.35866 9.81 4.21Z" stroke="black" stroke-width="2"/>
</svg>
