<svg width="32" height="32" viewBox="0 0 32 32" fill="none" xmlns="http://www.w3.org/2000/svg">
<path d="M9.3335 8C8.27263 8 7.25521 8.42143 6.50507 9.17157C5.75492 9.92172 5.3335 10.9391 5.3335 12V20C5.3335 21.0609 5.75492 22.0783 6.50507 22.8284C7.25521 23.5786 8.27263 24 9.3335 24H22.6668C23.7277 24 24.7451 23.5786 25.4953 22.8284C26.2454 22.0783 26.6668 21.0609 26.6668 20V12C26.6668 10.9391 26.2454 9.92172 25.4953 9.17157C24.7451 8.42143 23.7277 8 22.6668 8H9.3335ZM8.00016 12C8.00016 11.6464 8.14064 11.3072 8.39069 11.0572C8.64074 10.8071 8.97987 10.6667 9.3335 10.6667H22.6668C23.0205 10.6667 23.3596 10.8071 23.6096 11.0572C23.8597 11.3072 24.0002 11.6464 24.0002 12V12.4533L16.0002 15.8827L8.00016 12.4533V12ZM8.00016 15.3547L15.4748 18.5573C15.6408 18.6285 15.8196 18.6652 16.0002 18.6652C16.1808 18.6652 16.3595 18.6285 16.5255 18.5573L24.0002 15.3547V20C24.0002 20.3536 23.8597 20.6928 23.6096 20.9428C23.3596 21.1929 23.0205 21.3333 22.6668 21.3333H9.3335C8.97987 21.3333 8.64074 21.1929 8.39069 20.9428C8.14064 20.6928 8.00016 20.3536 8.00016 20V15.3547Z" fill="#1E3A5F"/>
</svg>
